<svg width="16" height="17" viewBox="0 0 16 17" fill="none" xmlns="http://www.w3.org/2000/svg">
    <path
        d="M12.7667 10.5001C12.6779 10.7012 12.6515 10.9242 12.6907 11.1405C12.7299 11.3567 12.833 11.5563 12.9867 11.7134L13.0267 11.7534C13.1506 11.8772 13.249 12.0243 13.3161 12.1862C13.3832 12.348 13.4177 12.5215 13.4177 12.6967C13.4177 12.872 13.3832 13.0455 13.3161 13.2073C13.249 13.3692 13.1506 13.5163 13.0267 13.6401C12.9028 13.764 12.7558 13.8624 12.5939 13.9295C12.4321 13.9966 12.2586 14.0311 12.0833 14.0311C11.9081 14.0311 11.7346 13.9966 11.5727 13.9295C11.4109 13.8624 11.2638 13.764 11.14 13.6401L11.1 13.6001C10.9429 13.4464 10.7433 13.3433 10.5271 13.3041C10.3108 13.2649 10.0877 13.2913 9.88667 13.3801C9.68949 13.4646 9.52132 13.6049 9.40287 13.7838C9.28442 13.9626 9.22086 14.1722 9.22 14.3867V14.5001C9.22 14.8537 9.07952 15.1928 8.82948 15.4429C8.57943 15.6929 8.24029 15.8334 7.88667 15.8334C7.53304 15.8334 7.19391 15.6929 6.94386 15.4429C6.69381 15.1928 6.55333 14.8537 6.55333 14.5001V14.4401C6.54817 14.2194 6.47675 14.0054 6.34834 13.8259C6.21994 13.6464 6.04049 13.5096 5.83333 13.4334C5.63226 13.3447 5.4092 13.3182 5.19294 13.3574C4.97668 13.3966 4.77712 13.4997 4.62 13.6534L4.58 13.6934C4.45617 13.8174 4.30912 13.9157 4.14725 13.9828C3.98539 14.0499 3.81189 14.0845 3.63667 14.0845C3.46145 14.0845 3.28794 14.0499 3.12608 13.9828C2.96422 13.9157 2.81716 13.8174 2.69333 13.6934C2.56936 13.5696 2.47102 13.4225 2.40392 13.2607C2.33682 13.0988 2.30228 12.9253 2.30228 12.7501C2.30228 12.5749 2.33682 12.4014 2.40392 12.2395C2.47102 12.0776 2.56936 11.9306 2.69333 11.8067L2.73333 11.7667C2.88702 11.6096 2.99012 11.4101 3.02934 11.1938C3.06855 10.9775 3.04208 10.7545 2.95333 10.5534C2.86882 10.3562 2.7285 10.1881 2.54964 10.0696C2.37078 9.95117 2.16119 9.8876 1.94667 9.88675H1.83333C1.47971 9.88675 1.14057 9.74627 0.890524 9.49622C0.640476 9.24618 0.5 8.90704 0.5 8.55341C0.5 8.19979 0.640476 7.86065 0.890524 7.61061C1.14057 7.36056 1.47971 7.22008 1.83333 7.22008H1.89333C2.114 7.21492 2.328 7.14349 2.50753 7.01509C2.68706 6.88668 2.82381 6.70724 2.9 6.50008C2.98874 6.299 3.01522 6.07595 2.976 5.85969C2.93679 5.64343 2.83369 5.44387 2.68 5.28675L2.64 5.24675C2.51603 5.12292 2.41769 4.97587 2.35059 4.814C2.28349 4.65214 2.24895 4.47864 2.24895 4.30341C2.24895 4.12819 2.28349 3.95469 2.35059 3.79283C2.41769 3.63096 2.51603 3.48391 2.64 3.36008C2.76383 3.23611 2.91088 3.13777 3.07275 3.07067C3.23461 3.00357 3.40811 2.96903 3.58333 2.96903C3.75855 2.96903 3.93206 3.00357 4.09392 3.07067C4.25578 3.13777 4.40284 3.23611 4.52667 3.36008L4.56667 3.40008C4.72379 3.55377 4.92334 3.65687 5.13961 3.69608C5.35587 3.7353 5.57892 3.70882 5.78 3.62008H5.83333C6.03051 3.53557 6.19868 3.39525 6.31713 3.21639C6.43558 3.03753 6.49914 2.82794 6.5 2.61341V2.50008C6.5 2.14646 6.64048 1.80732 6.89052 1.55727C7.14057 1.30722 7.47971 1.16675 7.83333 1.16675C8.18696 1.16675 8.52609 1.30722 8.77614 1.55727C9.02619 1.80732 9.16667 2.14646 9.16667 2.50008V2.56008C9.16752 2.77461 9.23109 2.9842 9.34954 3.16306C9.46799 3.34192 9.63615 3.48224 9.83333 3.56675C10.0344 3.65549 10.2575 3.68196 10.4737 3.64275C10.69 3.60354 10.8895 3.50044 11.0467 3.34675L11.0867 3.30675C11.2105 3.18278 11.3575 3.08443 11.5194 3.01734C11.6813 2.95024 11.8548 2.9157 12.03 2.9157C12.2052 2.9157 12.3787 2.95024 12.5406 3.01734C12.7025 3.08443 12.8495 3.18278 12.9733 3.30675C13.0973 3.43058 13.1956 3.57763 13.2627 3.73949C13.3298 3.90136 13.3644 4.07486 13.3644 4.25008C13.3644 4.4253 13.3298 4.5988 13.2627 4.76067C13.1956 4.92253 13.0973 5.06958 12.9733 5.19341L12.9333 5.23341C12.7796 5.39053 12.6765 5.59009 12.6373 5.80636C12.5981 6.02262 12.6246 6.24567 12.7133 6.44675V6.50008C12.7978 6.69726 12.9382 6.86543 13.117 6.98388C13.2959 7.10233 13.5055 7.16589 13.72 7.16675H13.8333C14.187 7.16675 14.5261 7.30722 14.7761 7.55727C15.0262 7.80732 15.1667 8.14646 15.1667 8.50008C15.1667 8.8537 15.0262 9.19284 14.7761 9.44289C14.5261 9.69294 14.187 9.83341 13.8333 9.83341H13.7733C13.5588 9.83427 13.3492 9.89784 13.1704 10.0163C12.9915 10.1347 12.8512 10.3029 12.7667 10.5001Z"
        stroke="black" stroke-linecap="round" stroke-linejoin="round" />
</svg>
    